<svg xmlns="http://www.w3.org/2000/svg" width="27" height="26" viewBox="0 0 27 26">
  <defs>
    <style>
      .cls-1 {
        fill: #edf0f5;
      }

      .cls-2 {
        fill: #0042af;
      }
    </style>
  </defs>
  <g id="Group_2435" data-name="Group 2435" transform="translate(0.449 -0.299)">
    <rect id="Rectangle_1059" data-name="Rectangle 1059" class="cls-1" width="27" height="26" rx="5" transform="translate(-0.449 0.299)"/>
    <g id="Group_2434" data-name="Group 2434" transform="translate(5.81 8.488)">
      <path id="Path_4294" data-name="Path 4294" class="cls-2" d="M160.214,203.831a2.567,2.567,0,0,0,1.714-1.2,2.726,2.726,0,0,0,.415-1.487,2.472,2.472,0,0,0-.363-1.366,2.08,2.08,0,0,0-1.078-.823,2.239,2.239,0,0,0,.712-.531,2.079,2.079,0,0,0,.432-1.373,2.374,2.374,0,0,0-.428-1.424,2.86,2.86,0,0,0-2.417-.993h-4.508v9.327h4.2A6.44,6.44,0,0,0,160.214,203.831Zm-3.661-7.581h2.029a3.507,3.507,0,0,1,1.1.146.836.836,0,0,1,.5.86.881.881,0,0,1-.379.82,1.872,1.872,0,0,1-.986.231h-2.267Zm0,6.088v-2.486h2.3a2.341,2.341,0,0,1,.932.157,1,1,0,0,1,.594,1,1.175,1.175,0,0,1-.613,1.165,2.2,2.2,0,0,1-.944.164Z" transform="translate(-154.693 -194.631)"/>
      <g id="Group_2433" data-name="Group 2433" transform="translate(8.178 0.536)">
        <path id="Path_4295" data-name="Path 4295" class="cls-2" d="M167.429,204.306a3.757,3.757,0,0,0,2.43.849,3.349,3.349,0,0,0,2.595-1.007,2.25,2.25,0,0,0,.668-1.247h-1.841a1.508,1.508,0,0,1-.372.475,1.527,1.527,0,0,1-1,.316,1.824,1.824,0,0,1-.994-.26,1.653,1.653,0,0,1-.722-1.455h5.024a8.912,8.912,0,0,0-.059-1.369,3.391,3.391,0,0,0-.549-1.425,2.793,2.793,0,0,0-1.193-1.021,3.917,3.917,0,0,0-1.622-.323,3.325,3.325,0,0,0-2.466.957,3.732,3.732,0,0,0-.95,2.748A3.344,3.344,0,0,0,167.429,204.306Zm1.289-4.585a1.432,1.432,0,0,1,1.076-.393,1.586,1.586,0,0,1,1.07.371,1.5,1.5,0,0,1,.48,1.09h-3.107A1.879,1.879,0,0,1,168.718,199.721Z" transform="translate(-166.377 -196.13)"/>
        <rect id="Rectangle_983" data-name="Rectangle 983" class="cls-2" width="4.053" height="0.941" transform="translate(1.272)"/>
      </g>
    </g>
  </g>
</svg>
