<svg xmlns="http://www.w3.org/2000/svg" width="17.737" height="17.013" viewBox="0 0 17.737 17.013">
  <defs>
    <style>
      .cls-1 {
        fill: none;
        stroke: #f5c401;
      }
    </style>
  </defs>
  <g id="Group_3326" data-name="Group 3326" transform="translate(-995.94 -2783.505)">
    <path id="Icon_awesome-star" data-name="Icon awesome-star" class="cls-1" d="M8.9.556,6.861,4.691,2.3,5.357a1,1,0,0,0-.553,1.706l3.3,3.217-.781,4.545a1,1,0,0,0,1.449,1.053L9.8,13.731l4.083,2.146a1,1,0,0,0,1.449-1.053l-.781-4.545,3.3-3.217A1,1,0,0,0,17.3,5.357l-4.564-.665L10.694.556A1,1,0,0,0,8.9.556Z" transform="translate(995.011 2784.006)"/>
  </g>
</svg>
