<svg xmlns="http://www.w3.org/2000/svg" width="14.402" height="14.402" viewBox="0 0 14.402 14.402">
  <defs>
    <style>
      .cls-1 {
        fill: #fff;
      }
    </style>
  </defs>
  <path id="Icon_material-copyright" data-name="Icon material-copyright" class="cls-1" d="M8.818,9.38a1.841,1.841,0,0,1,.216-.626,1.26,1.26,0,0,1,.425-.446,1.278,1.278,0,0,1,.655-.166,1.305,1.305,0,0,1,.454.094,1.161,1.161,0,0,1,.374.259,1.387,1.387,0,0,1,.245.382,1.261,1.261,0,0,1,.1.461h1.289a2.578,2.578,0,0,0-.2-.929,2.161,2.161,0,0,0-.5-.727,2.352,2.352,0,0,0-.778-.475,2.782,2.782,0,0,0-1-.166,2.814,2.814,0,0,0-1.224.245A2.476,2.476,0,0,0,8,7.947a2.707,2.707,0,0,0-.511.979,4.217,4.217,0,0,0-.173,1.181V10.3a4.216,4.216,0,0,0,.166,1.181A2.618,2.618,0,0,0,8,12.455a2.458,2.458,0,0,0,.864.655,2.922,2.922,0,0,0,1.224.245,2.747,2.747,0,0,0,.951-.166,2.456,2.456,0,0,0,.778-.454,2.2,2.2,0,0,0,.533-.677,1.938,1.938,0,0,0,.216-.828H11.274a1.025,1.025,0,0,1-.108.418,1.06,1.06,0,0,1-.259.331,1.134,1.134,0,0,1-.374.216,1.43,1.43,0,0,1-.432.072,1.223,1.223,0,0,1-.641-.166,1.26,1.26,0,0,1-.425-.446,1.882,1.882,0,0,1-.216-.634,4.854,4.854,0,0,1-.058-.72v-.194a4.8,4.8,0,0,1,.058-.727ZM10.2,3a7.2,7.2,0,1,0,7.2,7.2A7.2,7.2,0,0,0,10.2,3Zm0,12.962A5.761,5.761,0,1,1,15.962,10.2,5.768,5.768,0,0,1,10.2,15.962Z" transform="translate(-3 -3)"/>
</svg>
