<svg xmlns="http://www.w3.org/2000/svg" width="16.712" height="15.995" viewBox="0 0 16.712 15.995">
  <defs>
    <style>
      .cls-1 {
        fill: #f5c401;
      }
    </style>
  </defs>
  <path id="Icon_awesome-star" data-name="Icon awesome-star" class="cls-1" d="M8.9.556,6.861,4.691,2.3,5.357a1,1,0,0,0-.553,1.706l3.3,3.217-.781,4.545a1,1,0,0,0,1.449,1.053L9.8,13.731l4.083,2.146a1,1,0,0,0,1.449-1.053l-.781-4.545,3.3-3.217A1,1,0,0,0,17.3,5.357l-4.564-.665L10.694.556A1,1,0,0,0,8.9.556Z" transform="translate(-1.441 0.001)"/>
</svg>
