<svg xmlns="http://www.w3.org/2000/svg" width="32.01" height="32.008" viewBox="0 0 32.01 32.008">
  <defs>
    <style>
      .cls-1 {
        fill: #0042af;
        opacity: 0.5;
      }
    </style>
  </defs>
  <path id="Icon_ionic-ios-call" data-name="Icon ionic-ios-call" class="cls-1" d="M35.575,29.565a26.886,26.886,0,0,0-5.616-3.758c-1.683-.808-2.3-.792-3.492.067-.992.717-1.633,1.383-2.775,1.133s-3.392-1.95-5.575-4.125-3.883-4.433-4.125-5.575.425-1.783,1.133-2.775c.858-1.192.883-1.808.067-3.492a26.355,26.355,0,0,0-3.758-5.616C10.21,4.2,9.935,4.466,9.26,4.708A12.376,12.376,0,0,0,7.268,5.766,6.008,6.008,0,0,0,4.877,8.291C4.4,9.316,3.852,11.224,6.652,16.207a44.172,44.172,0,0,0,7.766,10.358h0l.008.008.008.008h0a44.345,44.345,0,0,0,10.358,7.766c4.983,2.8,6.891,2.25,7.916,1.775a5.906,5.906,0,0,0,2.525-2.392,12.376,12.376,0,0,0,1.058-1.992C36.534,31.065,36.809,30.79,35.575,29.565Z" transform="translate(-4.49 -4.502)"/>
</svg>
