<svg xmlns="http://www.w3.org/2000/svg" width="26" height="26" viewBox="0 0 26 26">
  <defs>
    <style>
      .cls-1 {
        fill: #edf0f5;
      }

      .cls-2 {
        fill: #0042af;
      }
    </style>
  </defs>
  <g id="Group_2432" data-name="Group 2432" transform="translate(-0.449 -0.299)">
    <rect id="Rectangle_1058" data-name="Rectangle 1058" class="cls-1" width="26" height="26" rx="5" transform="translate(0.449 0.299)"/>
    <g id="Group_2431" data-name="Group 2431" transform="translate(6.017 6.017)">
      <path id="Path_4291" data-name="Path 4291" class="cls-2" d="M218.025,138.417c1.95,0,2.181.008,2.952.043a4.046,4.046,0,0,1,1.356.252,2.414,2.414,0,0,1,1.386,1.386,4.046,4.046,0,0,1,.252,1.356c.035.771.043,1,.043,2.952s-.008,2.181-.043,2.951a4.047,4.047,0,0,1-.252,1.357,2.414,2.414,0,0,1-1.386,1.386,4.033,4.033,0,0,1-1.356.251c-.771.035-1,.043-2.952.043s-2.181-.008-2.951-.043a4.039,4.039,0,0,1-1.357-.251,2.419,2.419,0,0,1-1.386-1.386,4.034,4.034,0,0,1-.251-1.357c-.035-.77-.043-1-.043-2.951s.008-2.181.043-2.952a4.033,4.033,0,0,1,.251-1.356,2.419,2.419,0,0,1,1.386-1.386,4.052,4.052,0,0,1,1.357-.252c.77-.035,1-.043,2.951-.043m0-1.316c-1.984,0-2.232.009-3.011.044a5.369,5.369,0,0,0-1.773.339,3.735,3.735,0,0,0-2.136,2.136,5.347,5.347,0,0,0-.339,1.773c-.036.779-.044,1.028-.044,3.011s.008,2.232.044,3.011a5.348,5.348,0,0,0,.339,1.773,3.735,3.735,0,0,0,2.136,2.136,5.389,5.389,0,0,0,1.773.339c.779.035,1.028.043,3.011.043s2.232-.008,3.011-.043a5.385,5.385,0,0,0,1.773-.339,3.739,3.739,0,0,0,2.136-2.136,5.366,5.366,0,0,0,.339-1.773c.036-.779.044-1.028.044-3.011s-.008-2.232-.044-3.011a5.366,5.366,0,0,0-.339-1.773,3.739,3.739,0,0,0-2.136-2.136,5.365,5.365,0,0,0-1.773-.339c-.779-.035-1.028-.044-3.011-.044" transform="translate(-210.722 -137.101)"/>
      <path id="Path_4292" data-name="Path 4292" class="cls-2" d="M219.548,142.178a3.75,3.75,0,1,0,3.75,3.75,3.751,3.751,0,0,0-3.75-3.75m0,6.185a2.434,2.434,0,1,1,2.434-2.434,2.434,2.434,0,0,1-2.434,2.434" transform="translate(-212.245 -138.624)"/>
      <path id="Path_4293" data-name="Path 4293" class="cls-2" d="M227.227,141.59a.876.876,0,1,1-.876-.876.876.876,0,0,1,.876.876" transform="translate(-215.148 -138.185)"/>
    </g>
  </g>
</svg>
