<svg id="Group_28" data-name="Group 28" xmlns="http://www.w3.org/2000/svg" width="30.822" height="19.831" viewBox="0 0 30.822 19.831">
  <defs>
    <style>
      .cls-1 {
        fill: #fff;
      }
    </style>
  </defs>
  <rect id="Rectangle_16" data-name="Rectangle 16" class="cls-1" width="16.974" height="2.52" transform="translate(10.736 17.311)"/>
  <path id="Path_60" data-name="Path 60" class="cls-1" d="M752.294,847.945a1.912,1.912,0,0,0-.529-.5,17.174,17.174,0,0,0-4.173-.955,11.05,11.05,0,0,0-5.873,2.013l-2.349,1.393a.04.04,0,0,1-.026.005l-8.243-1.416a.673.673,0,0,0-.39.05l-1.311.594a.414.414,0,0,0-.009.75l5.451,2.633a.039.039,0,0,1,0,.068l-5.655,3.354-.085.05a4.9,4.9,0,0,1-3.528.534l-2.915-.661a.806.806,0,0,0-.447.017.744.744,0,0,0-.254,1.249l3.274,3a1.8,1.8,0,0,0,1.9.341l1.628-.66,9.254-3.9,13.077-5.506C752.387,849.879,752.89,848.811,752.294,847.945Z" transform="translate(-721.721 -846.487)"/>
  <path id="Path_61" data-name="Path 61" class="cls-1" d="M765.989,873.312l-3.88,1.623-.734,3.21a.3.3,0,0,0,.291.369l.381,0a1.513,1.513,0,0,0,1.289-.7Z" transform="translate(-747.229 -863.746)"/>
</svg>
