<svg id="Group_29" data-name="Group 29" xmlns="http://www.w3.org/2000/svg" width="27.964" height="20.391" viewBox="0 0 27.964 20.391">
  <defs>
    <style>
      .cls-1 {
        fill: #fff;
      }
    </style>
  </defs>
  <rect id="Rectangle_17" data-name="Rectangle 17" class="cls-1" width="16.974" height="2.52" transform="translate(9.301 17.871)"/>
  <path id="Path_62" data-name="Path 62" class="cls-1" d="M927.051,864.1a1.92,1.92,0,0,1,.018-.73,17.166,17.166,0,0,1,2.276-3.626,11.046,11.046,0,0,1,5.576-2.729l2.646-.676a.037.037,0,0,0,.022-.015l4.827-6.83a.673.673,0,0,1,.311-.241l1.347-.506a.414.414,0,0,1,.537.524l-1.993,5.716a.038.038,0,0,0,.046.05l6.371-1.626.1-.024A4.9,4.9,0,0,0,952,851.274l1.595-2.528a.8.8,0,0,1,.327-.3.744.744,0,0,1,1.063.7l-.191,4.439a1.8,1.8,0,0,1-1.1,1.582l-1.618.684-9.3,3.789-13.14,5.354C928.353,865.537,927.242,865.137,927.051,864.1Z" transform="translate(-927.024 -848.368)"/>
  <path id="Path_63" data-name="Path 63" class="cls-1" d="M966.6,882.268l3.891-1.6,2.789,1.751a.3.3,0,0,1,.055.467l-.267.272a1.512,1.512,0,0,1-1.406.417Z" transform="translate(-952.486 -869.152)"/>
</svg>
