<svg xmlns="http://www.w3.org/2000/svg" width="24.437" height="21.626" viewBox="0 0 24.437 21.626">
  <defs>
    <style>
      .cls-1 {
        fill: #fff;
      }
    </style>
  </defs>
  <g id="Group_21" data-name="Group 21" transform="translate(-375.366 -661.393)">
    <rect id="Rectangle_13" data-name="Rectangle 13" class="cls-1" width="5.909" height="2.557" rx="1.279" transform="translate(384.616 661.393)"/>
    <path id="Path_42" data-name="Path 42" class="cls-1" d="M385.939,730.54a.6.6,0,0,0,.6.6H388a.6.6,0,0,0,.6-.6v-2.064h-2.667Z" transform="translate(-7.585 -48.124)"/>
    <path id="Path_43" data-name="Path 43" class="cls-1" d="M441.747,730.54a.6.6,0,0,0,.6.6h1.461a.6.6,0,0,0,.6-.6v-2.064h-2.667Z" transform="translate(-47.62 -48.124)"/>
    <path id="Path_44" data-name="Path 44" class="cls-1" d="M398.6,681.379h-.059a1.2,1.2,0,0,1-1.116-.759l-1.744-4.245a4.359,4.359,0,0,0-4.158-3.051h-7.709a4.359,4.359,0,0,0-4.113,2.916c-.007.02-.014.04-.023.059l-1.983,4.336a1.2,1.2,0,0,1-1.1.727,1.2,1.2,0,0,0-1.2,1.2l-.028,4.318a1.2,1.2,0,0,0,1.2,1.2l22.009.016a1.2,1.2,0,0,0,1.2-1.2l.028-4.318A1.2,1.2,0,0,0,398.6,681.379Zm-16.879-4.65a1.641,1.641,0,0,1,1.5-.982l8.846,0a1.641,1.641,0,0,1,1.531,1.05l1.141,2.955-14.335-.021Zm-2.036,8.407A1.314,1.314,0,1,1,381,683.822,1.314,1.314,0,0,1,379.688,685.136Zm15.773,0a1.314,1.314,0,1,1,1.314-1.314A1.314,1.314,0,0,1,395.46,685.136Z" transform="translate(0 -8.56)"/>
  </g>
</svg>
